HIERARCHY
ROOT SimulationBone
{
	OFFSET 0.000000 0.000000 0.000000
	CHANNELS 6 Xposition Yposition Zposition Zrotation Yrotation Xrotation 
	JOINT Hips
	{
		OFFSET 0.000000 0.000000 0.000000
		CHANNELS 6 Xposition Yposition Zposition Zrotation Yrotation Xrotation 
		JOINT RightUpLeg
		{
			OFFSET 0.103459 1.857829 10.548508
			CHANNELS 3 Zrotation Yrotation Xrotation
			JOINT RightLeg
			{
				OFFSET 43.500000 -0.000031 -0.000004
				CHANNELS 3 Zrotation Yrotation Xrotation
				JOINT RightFoot
				{
					OFFSET 42.372200 0.000019 0.000005
					CHANNELS 3 Zrotation Yrotation Xrotation
					JOINT RightToe
					{
						OFFSET 17.299999 -0.000000 -0.000005
						CHANNELS 3 Zrotation Yrotation Xrotation
						End Site
						{
							OFFSET 0.000000 0.000000 0.000000
						}
					}
				}
			}
		}
		JOINT LeftUpLeg
		{
			OFFSET 0.103458 1.857828 -10.548506
			CHANNELS 3 Zrotation Yrotation Xrotation
			JOINT LeftLeg
			{
				OFFSET 43.500042 -0.000023 0.000011
				CHANNELS 3 Zrotation Yrotation Xrotation
				JOINT LeftFoot
				{
					OFFSET 42.372261 -0.000008 0.000008
					CHANNELS 3 Zrotation Yrotation Xrotation
					JOINT LeftToe
					{
						OFFSET 17.299994 -0.000005 0.000010
						CHANNELS 3 Zrotation Yrotation Xrotation
						End Site
						{
							OFFSET 0.000000 0.000000 0.000000
						}
					}
				}
			}
		}
		JOINT Spine
		{
			OFFSET 6.901963 -2.603731 0.000002
			CHANNELS 3 Zrotation Yrotation Xrotation
			JOINT Spine1
			{
				OFFSET 12.588100 0.000001 -0.000005
				CHANNELS 3 Zrotation Yrotation Xrotation
				JOINT Spine2
				{
					OFFSET 12.343208 0.000002 0.000006
					CHANNELS 3 Zrotation Yrotation Xrotation
					JOINT Neck
					{
						OFFSET 25.832893 -0.000004 -0.000005
						CHANNELS 3 Zrotation Yrotation Xrotation
						JOINT Head
						{
							OFFSET 11.766604 0.000010 0.000000
							CHANNELS 3 Zrotation Yrotation Xrotation
							End Site
							{
								OFFSET 0.000000 0.000000 0.000000
							}
						}
					}
					JOINT RightShoulder
					{
						OFFSET 19.745903 -1.480368 6.000098
						CHANNELS 3 Zrotation Yrotation Xrotation
						JOINT RightArm
						{
							OFFSET 11.284134 -0.000007 -0.000016
							CHANNELS 3 Zrotation Yrotation Xrotation
							JOINT RightForeArm
							{
								OFFSET 33.000050 0.000005 0.000015
								CHANNELS 3 Zrotation Yrotation Xrotation
								JOINT RightHand
								{
									OFFSET 25.200003 0.000014 0.000010
									CHANNELS 3 Zrotation Yrotation Xrotation
									End Site
									{
										OFFSET 0.000000 0.000000 0.000000
									}
								}
							}
						}
					}
					JOINT LeftShoulder
					{
						OFFSET 19.746094 -1.480373 -6.000076
						CHANNELS 3 Zrotation Yrotation Xrotation
						JOINT LeftArm
						{
							OFFSET 11.284140 -0.000016 -0.000005
							CHANNELS 3 Zrotation Yrotation Xrotation
							JOINT LeftForeArm
							{
								OFFSET 33.000092 0.000015 0.000005
								CHANNELS 3 Zrotation Yrotation Xrotation
								JOINT LeftHand
								{
									OFFSET 25.199781 0.000140 0.000422
									CHANNELS 3 Zrotation Yrotation Xrotation
									End Site
									{
										OFFSET 0.000000 0.000000 0.000000
									}
								}
							}
						}
					}
				}
			}
		}
	}
}
MOTION
Frames: 13
Frame Time: 0.016667
101.672529 0.000000 8.933324 0.000000 83.798848 0.000000 0.688583 90.740197 0.216205 96.627472 -2.221080 179.997498 171.770312 3.114730 169.935925 -23.210010 -3.671092 -18.832274 81.532833 13.135190 -0.230565 21.454557 0.003115 0.000017 170.949333 17.707033 -171.629189 -65.129968 -3.609544 3.510201 74.777713 1.243546 12.285298 21.454555 -0.003096 -0.000004 8.919564 -1.705662 0.322035 7.821838 -3.429074 0.528415 7.503129 -3.425952 0.549120 -10.270842 -0.254971 3.351091 -4.278074 3.659606 2.260601 140.942516 -75.297061 38.492787 -5.835340 59.127214 28.096138 -42.818399 -15.701660 1.608669 11.538653 -16.397740 14.558341 160.920037 76.703373 -18.054973 -34.902483 -56.949852 -34.671435 -47.819836 12.819464 -1.536821 4.361945 15.424557 -20.938876 
101.354236 0.000000 8.249817 0.000000 83.724895 0.000000 0.663491 90.796043 0.225995 96.533361 -2.154496 -179.794685 172.173892 3.345396 169.979257 -23.044949 -3.611534 -18.798948 81.904738 13.099813 -0.215456 21.454557 0.003107 0.000016 169.902335 17.552387 -171.723564 -64.800428 -3.440668 4.275323 75.856913 0.378193 11.635459 21.454560 -0.003103 -0.000000 8.900679 -1.700655 0.263320 7.785792 -3.415063 0.411931 7.467086 -3.412644 0.432561 -10.409711 -0.068220 3.311601 -4.002976 3.579784 2.316009 140.380137 -75.261782 39.066408 -6.566051 58.959557 27.735548 -42.319936 -15.711151 1.595141 11.613843 -16.157335 14.661773 161.027513 76.634403 -17.948996 -35.149447 -57.154990 -35.127822 -47.728497 12.825854 -1.534438 4.223520 15.894301 -21.103743 
101.062145 0.000000 7.572857 0.000000 83.690936 0.000000 0.633541 90.827052 0.238290 96.424221 -2.129597 -179.657486 172.532353 3.597919 170.128194 -22.919670 -3.596126 -18.842803 82.277480 13.109777 -0.232254 21.454556 0.003104 0.000015 168.894456 17.423475 -171.811021 -63.981842 -3.403814 4.741486 76.310878 -0.083403 11.363172 21.454554 -0.003101 0.000002 8.872052 -1.702032 0.216124 7.729923 -3.414585 0.318350 7.411213 -3.412737 0.338984 -10.475856 0.064654 3.270009 -3.814205 3.522827 2.342491 140.149915 -75.155001 39.308346 -7.189106 58.738190 27.394280 -41.860564 -15.705065 1.581900 11.655777 -15.954624 14.808027 160.819958 76.634057 -18.160541 -35.295284 -57.398872 -35.668851 -47.637393 12.878703 -1.535203 4.349365 16.224115 -21.101151 
100.794049 0.000000 6.902514 0.000000 83.698245 0.000000 0.596453 90.820122 0.256127 96.309176 -2.166719 -179.606346 172.826148 3.894601 170.356884 -22.887093 -3.605802 -18.962294 82.671441 13.159203 -0.297827 21.454557 0.003106 0.000016 167.947767 17.320089 -171.953154 -62.710821 -3.437608 4.944921 76.675826 -0.260154 11.388898 21.454548 -0.003094 0.000003 8.838763 -1.715687 0.181528 7.664382 -3.439508 0.249289 7.345656 -3.438081 0.270075 -10.489291 0.153419 3.220705 -3.688848 3.483991 2.339715 140.157992 -74.986485 39.313217 -7.707925 58.458474 27.077393 -41.466689 -15.686177 1.569899 11.674054 -15.803839 14.936674 160.425282 76.635674 -18.562640 -35.306828 -57.597344 -36.209195 -47.496315 12.923752 -1.533845 4.684895 16.317361 -21.086802 
100.550272 0.000000 6.239275 0.000000 83.748759 0.000000 0.557410 90.774877 0.275031 96.199581 -2.262445 -179.643157 173.062381 4.238371 170.613606 -22.964058 -3.614446 -19.129847 83.097800 13.228732 -0.414616 21.454558 0.003110 0.000018 167.100602 17.219099 -172.187982 -61.010029 -3.456862 4.971552 77.422770 -0.324292 11.511458 21.454549 -0.003090 0.000004 8.806771 -1.742642 0.160201 7.601082 -3.491921 0.205846 7.282331 -3.490750 0.226947 -10.516825 0.239500 3.154696 -3.561798 3.437844 2.321446 140.252742 -74.779117 39.233159 -8.153754 58.138539 26.770500 -41.145597 -15.666869 1.559895 11.683494 -15.705078 14.981155 160.035684 76.571751 -18.962962 -35.153450 -57.668364 -36.658692 -47.282652 12.905358 -1.526041 5.113383 16.140510 -21.160970 
100.330282 0.000000 5.582476 0.000000 83.844051 0.000000 0.522168 90.703194 0.291200 96.096497 -2.393472 -179.739869 173.262297 4.596897 170.771436 -23.132509 -3.596593 -19.252312 83.557712 13.262245 -0.550353 21.454560 0.003114 0.000019 166.348274 17.114402 -172.481524 -58.964687 -3.429741 4.932853 78.406329 -0.369936 11.635298 21.454553 -0.003090 0.000004 8.779031 -1.778013 0.149015 7.546021 -3.561841 0.182017 7.227243 -3.560809 0.203543 -10.635759 0.351607 3.078950 -3.381326 3.369778 2.309350 140.373007 -74.540425 39.129601 -8.570573 57.783330 26.467006 -40.880505 -15.650976 1.551657 11.733483 -15.640998 14.912653 159.709273 76.457706 -19.301525 -34.861875 -57.615062 -36.941344 -47.073478 12.848110 -1.515978 5.444576 15.870160 -20.967542 
100.131787 0.000000 4.930021 0.000000 83.986626 0.000000 0.494597 90.622527 0.303075 96.002192 -2.524942 -179.862275 173.456509 4.927440 170.734680 -23.353069 -3.537336 -19.248458 84.042731 13.212672 -0.669567 21.454559 0.003116 0.000019 165.688785 16.994488 -172.754244 -56.653888 -3.359535 4.916758 79.346418 -0.449832 11.683266 21.454554 -0.003092 0.000002 8.758246 -1.813675 0.143411 7.504718 -3.632716 0.169144 7.185922 -3.631767 0.191110 -10.900823 0.498702 3.004805 -3.114093 3.279254 2.318651 140.488634 -74.280386 39.032333 -9.004339 57.402038 26.154694 -40.649933 -15.638081 1.544608 11.855522 -15.597060 14.736664 159.422076 76.323249 -19.601198 -34.456841 -57.462397 -37.015561 -46.967316 12.793324 -1.509249 5.552476 15.670663 -20.203397 
99.952574 0.000000 4.279797 0.000000 84.178801 0.000000 0.474271 90.560371 0.310525 95.933905 -2.596424 -179.977042 173.705467 5.178807 170.608495 -23.535937 -3.465823 -19.149501 84.515544 13.107425 -0.755724 21.454558 0.003115 0.000018 165.174246 16.806188 -172.815916 -54.069600 -3.316965 4.885499 80.042180 -0.536687 11.548602 21.454553 -0.003093 0.000000 8.749128 -1.834415 0.136938 7.486746 -3.673732 0.155152 7.167941 -3.672874 0.177373 -11.265799 0.624143 2.946636 -2.786743 3.211535 2.331654 140.599086 -74.033830 38.939220 -9.498619 57.034437 25.788246 -40.437635 -15.619365 1.537694 11.974753 -15.588469 14.557918 158.978525 76.172081 -20.061247 -33.903371 -57.234074 -36.959430 -47.049149 12.768779 -1.509981 5.649178 15.458105 -19.246823 
99.790862 0.000000 3.630254 0.000000 84.418553 0.000000 0.459971 90.536913 0.314538 95.907632 -2.563145 179.943013 174.059122 5.315299 170.519089 -23.609802 -3.415207 -19.006316 84.944369 12.984603 -0.802475 21.454557 0.003112 0.000017 164.850831 16.508010 -172.532446 -51.205402 -3.347322 4.784008 80.358429 -0.590804 11.173386 21.454552 -0.003093 -0.000001 8.755835 -1.828798 0.125189 7.500520 -3.661755 0.131814 7.181718 -3.661035 0.153955 -11.665869 0.678123 2.912711 -2.444497 3.205366 2.328047 140.687285 -73.828800 38.865486 -10.078707 56.716031 25.327982 -40.233426 -15.587582 1.530175 12.017948 -15.625759 14.475752 158.243689 75.994873 -20.819903 -33.155353 -56.935111 -36.872187 -47.401922 12.783783 -1.521404 5.963338 15.075367 -18.549332 
99.644043 0.000000 2.980182 0.000000 84.699955 0.000000 0.449788 90.533058 0.321890 95.922606 -2.468076 179.888551 174.489176 5.373895 170.475361 -23.627255 -3.388098 -18.837607 85.348718 12.851415 -0.828035 21.454557 0.003110 0.000016 164.691598 16.137498 -172.105044 -48.151829 -3.347814 4.639214 80.342722 -0.604608 10.718685 21.454553 -0.003093 -0.000001 8.778311 -1.807572 0.113835 7.545781 -3.618613 0.109782 7.226989 -3.618020 0.131653 -12.063444 0.702476 2.880031 -2.147339 3.226809 2.307594 140.641583 -73.641415 38.926519 -10.698674 56.437100 24.790698 -40.046044 -15.550220 1.522770 12.023850 -15.667768 14.469465 157.462223 75.762318 -21.629399 -32.180271 -56.498329 -36.819363 -48.113778 12.787438 -1.543738 6.454014 14.339053 -18.165882 
99.508559 0.000000 2.328414 0.000000 85.018105 0.000000 0.440604 90.525546 0.339563 95.970284 -2.365437 179.842733 174.951219 5.403295 170.467414 -23.653949 -3.380047 -18.657430 85.752978 12.711169 -0.853362 21.454557 0.003110 0.000016 164.652441 15.743441 -171.771437 -45.010708 -3.204943 4.489975 80.089067 -0.576338 10.355417 21.454555 -0.003096 -0.000000 8.814215 -1.783954 0.108919 7.617708 -3.571101 0.100372 7.298930 -3.570565 0.121959 -12.437179 0.745805 2.826004 -1.939027 3.234970 2.275100 140.378351 -73.443662 39.209606 -11.310332 56.178859 24.219194 -39.881552 -15.520467 1.516462 12.043575 -15.670690 14.482644 156.896936 75.453867 -22.222989 -30.977130 -55.866448 -36.843765 -49.229307 12.731716 -1.575125 7.018854 13.129538 -18.050939 
99.382002 0.000000 1.674150 0.000000 85.371160 0.000000 0.425782 90.513748 0.365369 96.025473 -2.267154 179.799751 175.416183 5.425909 170.526874 -23.684002 -3.390250 -18.492749 86.149585 12.581278 -0.885083 21.454558 0.003111 0.000017 164.683893 15.349501 -171.581264 -41.829993 -2.891386 4.300111 79.695664 -0.492107 10.077383 21.454555 -0.003094 0.000001 8.856271 -1.758844 0.107885 7.701815 -3.520861 0.098663 7.383055 -3.520336 0.119952 -12.803055 0.793445 2.763797 -1.783514 3.234225 2.237554 140.002988 -73.243659 39.607007 -11.926177 55.929169 23.705579 -39.716463 -15.519571 1.512090 12.065860 -15.632927 14.436100 156.537183 75.091417 -22.610456 -29.634414 -55.096720 -36.957996 -50.614627 12.640915 -1.612874 7.579158 11.595167 -18.142700 
99.264284 0.000000 1.017717 0.000000 85.759439 0.000000 0.400725 90.504332 0.392451 96.063519 -2.172383 179.758077 175.870127 5.454038 170.681297 -23.684459 -3.415097 -18.362753 86.520924 12.475880 -0.922084 21.454556 0.003113 0.000017 164.741818 14.969654 -171.524859 -38.646392 -2.410455 4.027671 79.213693 -0.335332 9.846588 21.454551 -0.003085 0.000002 8.897198 -1.729720 0.106566 7.783642 -3.462593 0.096729 7.464908 -3.462075 0.117663 -13.181208 0.817305 2.712197 -1.634540 3.237841 2.200260 139.652812 -73.052981 39.978188 -12.563877 55.677698 23.319580 -39.534148 -15.558855 1.509923 12.068182 -15.566780 14.288710 156.296582 74.711410 -22.877880 -28.248280 -54.272232 -37.157488 -52.117694 12.548316 -1.655569 8.087428 9.917519 -18.388771 
